<svg width="38" height="38" viewBox="0 0 38 38" fill="none" stroke="#000" xmlns="http://www.w3.org/2000/svg">
<g clip-path="url(#clip0_15_743)">
<path d="M35.7132 32.559L35.716 32.5587C36.1564 32.5155 36.5 32.1383 36.5 31.6914V16.625C36.5 16.1398 36.1102 15.75 35.625 15.75H33.3762C29.2223 15.75 25.1657 16.9553 21.6875 19.2049V35.5685L23.1067 34.856L23.1114 34.8535C24.8225 34.0021 26.6829 33.4606 28.5882 33.2715L35.7132 32.559ZM35.7132 32.559L28.5895 33.2714L35.7132 32.559ZM16.3125 19.2049V35.5729L14.8911 34.8623L14.8886 34.861C13.1784 34.01 11.3255 33.4681 9.41176 33.2789L9.40985 33.2787L2.2931 32.5671C2.29225 32.567 2.29141 32.5669 2.29057 32.5668C1.83936 32.5185 1.5 32.1402 1.5 31.6914V16.625C1.5 16.1398 1.88976 15.75 2.375 15.75H4.62383C8.77773 15.75 12.8343 16.9553 16.3125 19.2049ZM13.375 7.125C13.375 5.63316 13.9676 4.20242 15.0225 3.14752C16.0774 2.09263 17.5082 1.5 19 1.5C20.4918 1.5 21.9226 2.09263 22.9775 3.14752C24.0324 4.20242 24.625 5.63316 24.625 7.125C24.625 8.61684 24.0324 10.0476 22.9775 11.1025C21.9226 12.1574 20.4918 12.75 19 12.75C17.5082 12.75 16.0774 12.1574 15.0225 11.1025C13.9676 10.0476 13.375 8.61684 13.375 7.125Z"  stroke-width="3"/>
</g>
<defs>
<clipPath id="clip0_15_743">
<rect width="38" height="38" fill="white"/>
</clipPath>
</defs>
</svg>
