<svg width="43" height="43" viewBox="0 0 43 43" fill="none" xmlns="http://www.w3.org/2000/svg">
<g clip-path="url(#clip0_19_770)">
<path d="M15.4531 0C18.0482 0 20.1562 2.10801 20.1562 4.70312V38.2969C20.1562 40.892 18.0482 43 15.4531 43C13.026 43 11.0271 41.1607 10.7752 38.7924C10.3385 38.91 9.87656 38.9688 9.40625 38.9688C6.4416 38.9688 4.03125 36.5584 4.03125 33.5938C4.03125 32.9723 4.14043 32.3676 4.33359 31.8133C1.79727 30.8559 0 28.4035 0 25.5312C0 22.8521 1.57051 20.5342 3.84648 19.4592C3.11582 18.5437 2.6875 17.3848 2.6875 16.125C2.6875 13.5467 4.50156 11.3967 6.92031 10.8676C6.78594 10.4057 6.71875 9.91016 6.71875 9.40625C6.71875 6.89512 8.44883 4.77871 10.7752 4.19082C11.0271 1.83926 13.026 0 15.4531 0ZM27.5469 0C29.974 0 31.9645 1.83926 32.2248 4.19082C34.5596 4.77871 36.2812 6.88672 36.2812 9.40625C36.2812 9.91016 36.2141 10.4057 36.0797 10.8676C38.4984 11.3883 40.3125 13.5467 40.3125 16.125C40.3125 17.3848 39.8842 18.5437 39.1535 19.4592C41.4295 20.5342 43 22.8521 43 25.5312C43 28.4035 41.2027 30.8559 38.6664 31.8133C38.8596 32.3676 38.9688 32.9723 38.9688 33.5938C38.9688 36.5584 36.5584 38.9688 33.5938 38.9688C33.1234 38.9688 32.6615 38.91 32.2248 38.7924C31.9729 41.1607 29.974 43 27.5469 43C24.9518 43 22.8438 40.892 22.8438 38.2969V4.70312C22.8438 2.10801 24.9518 0 27.5469 0Z" fill="#FFA800"/>
</g>
<defs>
<clipPath id="clip0_19_770">
<rect width="43" height="43" fill="white"/>
</clipPath>
</defs>
</svg>
