<svg width="32" height="32" viewBox="0 0 32 32" fill="none" stroke="#000" xmlns="http://www.w3.org/2000/svg">
<g clip-path="url(#clip0_15_741)">
<path d="M30.8267 6.82678C31.5867 6.06678 32 5.06678 32 4.00012C32 2.93345 31.5867 1.93345 30.8267 1.17345C29.2667 -0.386552 26.7333 -0.386552 25.1733 1.17345L10.6667 15.6801V21.3335H16.32L30.8267 6.82678ZM28.9467 3.05345C29.2 3.30678 29.3333 3.64012 29.3333 4.00012C29.3333 4.36012 29.2 4.69345 28.9467 4.94678L27.2267 6.66678L25.3467 4.78678L27.0667 3.06678C27.5867 2.54678 28.4267 2.54678 28.9467 3.06678V3.05345ZM13.3333 18.6668V16.7868L23.4533 6.66678L25.3333 8.54678L15.2133 18.6668H13.3333ZM32 29.3334V32.0001C29.9467 32.0001 28.9467 30.5068 28.2267 29.4001C27.56 28.4001 27.2267 28.0001 26.6667 28.0001C25.9867 28.0001 25.4667 28.5868 24.6533 29.5334C23.72 30.6401 22.56 32.0001 20.6133 32.0001C18.6667 32.0001 17.52 30.6268 16.6133 29.5068C15.84 28.5734 15.3333 28.0001 14.6667 28.0001C14 28.0001 13.3733 28.5201 12.3867 29.3734C11.04 30.5468 9.36 32.0001 6.66667 32.0001C2.98667 32.0001 0 29.0134 0 25.3334C0 21.6534 2.98667 18.6668 6.66667 18.6668H8V21.3335H6.66667C4.46667 21.3335 2.66667 23.1334 2.66667 25.3334C2.66667 27.5334 4.46667 29.3334 6.66667 29.3334C8.37333 29.3334 9.46667 28.3734 10.64 27.3601C11.7867 26.3601 12.9733 25.3334 14.6667 25.3334C16.6267 25.3334 17.76 26.7068 18.6667 27.8268C19.44 28.7601 19.9467 29.3334 20.6133 29.3334C21.28 29.3334 21.8133 28.7468 22.6267 27.8001C23.56 26.6934 24.72 25.3334 26.6667 25.3334C28.6133 25.3334 29.72 26.8268 30.44 27.9334C31.1067 28.9334 31.44 29.3334 32 29.3334Z" fill="#989898"/>
</g>
<defs>
<clipPath id="clip0_15_741">
<rect width="32" height="32" fill="white"/>
</clipPath>
</defs>
</svg>
