<svg width="29" height="33" viewBox="0 0 29 33" fill="none" xmlns="http://www.w3.org/2000/svg">
<path d="M9.32141 0C7.60601 0 6.21427 1.38574 6.21427 3.09375V6.1875V8.02441V11.3438C6.21427 11.9109 5.7482 12.375 5.17855 12.375C4.60891 12.375 4.14284 11.9109 4.14284 11.3438V9.62285L3.56025 10.1062C2.61516 10.8926 2.07141 12.0527 2.07141 13.2773V15.7266C2.07141 18.1758 3.16538 20.4961 5.05556 22.0623L8.2857 24.75V30.9375C8.2857 32.0783 9.21137 33 10.3571 33H20.7143C21.86 33 22.7857 32.0783 22.7857 30.9375V24.1506C25.8216 22.926 27.9643 19.9611 27.9643 16.5V11.3438V10.3125V9.28125C27.9643 7.57324 26.5725 6.1875 24.8571 6.1875C24.0544 6.1875 23.3294 6.49043 22.7792 6.98027C22.6562 5.38184 21.3163 4.125 19.6786 4.125C18.8759 4.125 18.1509 4.42793 17.6007 4.91777C17.4777 3.31934 16.1377 2.0625 14.5 2.0625C13.6973 2.0625 12.9723 2.36543 12.4221 2.85527C12.2991 1.25684 10.9591 0 9.32141 0Z" fill="#0477C0"/>
</svg>
