<svg width="47" height="63" viewBox="0 0 47 63" fill="none" xmlns="http://www.w3.org/2000/svg">
<path d="M23.5 0C17.0131 0 11.75 5.29102 11.75 11.8125V31.5C11.75 38.0215 17.0131 43.3125 23.5 43.3125C29.987 43.3125 35.25 38.0215 35.25 31.5V11.8125C35.25 5.29102 29.987 0 23.5 0ZM7.83337 26.5781C7.83337 24.9416 6.52374 23.625 4.89587 23.625C3.26801 23.625 1.95837 24.9416 1.95837 26.5781V31.5C1.95837 42.4635 10.061 51.5197 20.5625 52.9594V57.0938H14.6875C13.0597 57.0938 11.75 58.4104 11.75 60.0469C11.75 61.6834 13.0597 63 14.6875 63H23.5H32.3125C33.9404 63 35.25 61.6834 35.25 60.0469C35.25 58.4104 33.9404 57.0938 32.3125 57.0938H26.4375V52.9594C36.9391 51.5197 45.0417 42.4635 45.0417 31.5V26.5781C45.0417 24.9416 43.7321 23.625 42.1042 23.625C40.4763 23.625 39.1667 24.9416 39.1667 26.5781V31.5C39.1667 40.1994 32.1534 47.25 23.5 47.25C14.8467 47.25 7.83337 40.1994 7.83337 31.5V26.5781Z" fill="white"/>
</svg>
