<svg width="28" height="28" viewBox="0 0 28 28" fill="none" xmlns="http://www.w3.org/2000/svg">
<g clip-path="url(#clip0_28_1553)">
<path d="M27.1195 9.11094C27.2945 9.58672 27.1469 10.1172 26.7695 10.4563L24.4016 12.6109C24.4617 13.0648 24.4945 13.5297 24.4945 14C24.4945 14.4703 24.4617 14.9352 24.4016 15.3891L26.7695 17.5437C27.1469 17.8828 27.2945 18.4133 27.1195 18.8891C26.8789 19.5398 26.5891 20.1633 26.2555 20.7648L25.9984 21.2078C25.6375 21.8094 25.2328 22.3781 24.7898 22.9141C24.4672 23.3078 23.9313 23.4391 23.45 23.2859L20.4039 22.318C19.6711 22.8813 18.8617 23.3516 17.9977 23.707L17.3141 26.8297C17.2047 27.3273 16.8219 27.7211 16.3188 27.8031C15.5641 27.9289 14.7875 27.9945 13.9945 27.9945C13.2016 27.9945 12.425 27.9289 11.6703 27.8031C11.1672 27.7211 10.7844 27.3273 10.675 26.8297L9.99141 23.707C9.12735 23.3516 8.31798 22.8813 7.58516 22.318L4.54454 23.2914C4.06329 23.4445 3.52735 23.3078 3.20469 22.9195C2.76173 22.3836 2.35704 21.8148 1.9961 21.2133L1.73907 20.7703C1.40548 20.1687 1.11563 19.5453 0.875008 18.8945C0.700008 18.4188 0.847664 17.8883 1.22501 17.5492L3.59298 15.3945C3.53282 14.9352 3.50001 14.4703 3.50001 14C3.50001 13.5297 3.53282 13.0648 3.59298 12.6109L1.22501 10.4563C0.847664 10.1172 0.700008 9.58672 0.875008 9.11094C1.11563 8.46016 1.40548 7.83672 1.73907 7.23516L1.9961 6.79219C2.35704 6.19062 2.76173 5.62187 3.20469 5.08594C3.52735 4.69219 4.06329 4.56094 4.54454 4.71406L7.59063 5.68203C8.32344 5.11875 9.13282 4.64844 9.99688 4.29297L10.6805 1.17031C10.7899 0.672656 11.1727 0.278906 11.6758 0.196875C12.4305 0.065625 13.207 0 14 0C14.793 0 15.5695 0.065625 16.3242 0.191406C16.8274 0.273438 17.2102 0.667187 17.3195 1.16484L18.0031 4.2875C18.8672 4.64297 19.6766 5.11328 20.4094 5.67656L23.4555 4.70859C23.9367 4.55547 24.4727 4.69219 24.7953 5.08047C25.2383 5.61641 25.643 6.18516 26.0039 6.78672L26.2609 7.22969C26.5945 7.83125 26.8844 8.45469 27.125 9.10547L27.1195 9.11094ZM14 18.375C15.1603 18.375 16.2731 17.9141 17.0936 17.0936C17.9141 16.2731 18.375 15.1603 18.375 14C18.375 12.8397 17.9141 11.7269 17.0936 10.9064C16.2731 10.0859 15.1603 9.625 14 9.625C12.8397 9.625 11.7269 10.0859 10.9064 10.9064C10.0859 11.7269 9.62501 12.8397 9.62501 14C9.62501 15.1603 10.0859 16.2731 10.9064 17.0936C11.7269 17.9141 12.8397 18.375 14 18.375Z" fill="#5F93D0"/>
</g>
<defs>
<clipPath id="clip0_28_1553">
<rect width="28" height="28" fill="white"/>
</clipPath>
</defs>
</svg>
