<svg width="29" height="29" viewBox="0 0 29 29" fill="none" xmlns="http://www.w3.org/2000/svg">
<path d="M17.3887 1.97101C16.7373 2.25988 16.3125 2.91125 16.3125 3.62492V7.24992H9.96875C4.46328 7.24992 0 11.7132 0 17.2187C0 23.6361 4.61621 26.5021 5.67539 27.0798C5.81699 27.1591 5.97559 27.1874 6.13418 27.1874C6.75156 27.1874 7.25 26.6833 7.25 26.0716C7.25 25.6468 7.00644 25.256 6.69492 24.9671C6.1625 24.463 5.4375 23.4718 5.4375 21.7499C5.4375 18.748 7.87305 16.3124 10.875 16.3124H16.3125V19.9374C16.3125 20.6511 16.7316 21.3025 17.3887 21.5913C18.0457 21.8802 18.8047 21.7612 19.3371 21.2855L28.3996 13.1292C28.7791 12.7837 29 12.2966 29 11.7812C29 11.2657 28.7848 10.7786 28.3996 10.4331L19.3371 2.27687C18.8047 1.79543 18.04 1.67648 17.3887 1.97101Z" fill="#5F93D0"/>
</svg>
