<svg width="37" height="30" viewBox="0 0 37 30" fill="none" xmlns="http://www.w3.org/2000/svg">
<g clip-path="url(#clip0_28_1559)">
<path d="M12.95 15C14.9126 15 16.7948 14.2098 18.1826 12.8033C19.5704 11.3968 20.35 9.48912 20.35 7.5C20.35 5.51088 19.5704 3.60322 18.1826 2.1967C16.7948 0.790176 14.9126 0 12.95 0C10.9874 0 9.10518 0.790176 7.71741 2.1967C6.32964 3.60322 5.55 5.51088 5.55 7.5C5.55 9.48912 6.32964 11.3968 7.71741 12.8033C9.10518 14.2098 10.9874 15 12.95 15ZM10.308 17.8125C4.61344 17.8125 0 22.4883 0 28.2598C0 29.2207 0.768906 30 1.71703 30H24.183C24.287 30 24.3853 29.9883 24.4894 29.9707C20.0783 26.7422 18.7197 21.709 18.5289 18.2402C17.5981 17.959 16.6153 17.8125 15.5978 17.8125H10.308ZM28.1605 13.2246L21.223 16.0371C20.6969 16.2539 20.35 16.7695 20.35 17.3438C20.35 21.0527 21.8473 27.2344 28.1431 29.8945C28.4842 30.041 28.8716 30.041 29.2127 29.8945C35.5027 27.2344 37 21.0527 37 17.3438C37 16.7695 36.6531 16.2539 36.127 16.0371L29.1895 13.2246C28.86 13.0898 28.49 13.0898 28.1605 13.2246ZM34.1903 18.2813C33.9648 21.252 32.6178 25.1191 28.675 27.0527V16.043L34.1903 18.2813Z" fill="#5F93D0"/>
</g>
<defs>
<clipPath id="clip0_28_1559">
<rect width="37" height="30" fill="white"/>
</clipPath>
</defs>
</svg>
