<svg width="67" height="53" viewBox="0 0 67 53" fill="none" xmlns="http://www.w3.org/2000/svg">
<path d="M55.8612 3.36428C62.6555 8.81956 67 17.1629 67 26.5C67 35.8371 62.6555 44.1701 55.8612 49.6358C54.783 50.5053 53.2022 50.3397 52.3228 49.2735C51.4434 48.2073 51.6109 46.6442 52.6892 45.7746C58.3633 41.2199 61.975 34.2844 61.975 26.5C61.975 18.7156 58.3633 11.7801 52.6892 7.21506C51.6109 6.34553 51.4539 4.78245 52.3228 3.71624C53.1917 2.65002 54.783 2.49475 55.8612 3.35393V3.36428ZM49.5277 11.0762C54.0502 14.7199 56.95 20.2787 56.95 26.5C56.95 32.7213 54.0502 38.2801 49.5277 41.9239C48.4494 42.7934 46.8686 42.6278 45.9892 41.5616C45.1098 40.4953 45.2773 38.9323 46.3556 38.0627C49.758 35.3299 51.925 31.1686 51.925 26.5C51.925 21.8315 49.758 17.6701 46.3556 14.927C45.2773 14.0574 45.1203 12.4944 45.9892 11.4281C46.8581 10.3619 48.4494 10.2067 49.5277 11.0658V11.0762ZM43.1941 18.7881C45.4448 20.61 46.9 23.3842 46.9 26.5C46.9 29.6158 45.4448 32.3901 43.1941 34.2119C42.1158 35.0815 40.535 34.9158 39.6556 33.8496C38.7762 32.7834 38.9437 31.2203 40.022 30.3508C41.1527 29.4399 41.875 28.0528 41.875 26.5C41.875 24.9473 41.1527 23.5602 40.022 22.6389C38.9437 21.7694 38.7867 20.2063 39.6556 19.1401C40.5245 18.0739 42.1158 17.9186 43.1941 18.7778V18.7881ZM31.5214 3.60237C32.7253 4.14065 33.5 5.32073 33.5 6.62502V46.375C33.5 47.6793 32.7253 48.8594 31.5214 49.3977C30.3175 49.936 28.9042 49.7186 27.9202 48.849L13.7978 36.4375H6.7C3.00453 36.4375 0 33.4666 0 29.8125V23.1875C0 19.5334 3.00453 16.5625 6.7 16.5625H13.7978L27.9202 4.151C28.9042 3.28147 30.3175 3.07444 31.5214 3.60237Z" fill="white"/>
</svg>
