<svg width="15" height="13" viewBox="0 0 15 13" fill="none" xmlns="http://www.w3.org/2000/svg">
<g clip-path="url(#clip0_20_789)">
<path d="M8.25259 0.457031C8.11457 0.177734 7.8229 0 7.50259 0C7.18228 0 6.89321 0.177734 6.75259 0.457031L5.07811 3.81621L1.33853 4.35449C1.02603 4.4002 0.76561 4.61348 0.669256 4.90547C0.572901 5.19746 0.651026 5.51992 0.874985 5.73574L3.58853 8.35352L2.9479 12.0529C2.89582 12.3576 3.02603 12.6674 3.28384 12.8477C3.54165 13.0279 3.8828 13.0508 4.16405 12.9061L7.50519 11.1668L10.8463 12.9061C11.1276 13.0508 11.4687 13.0305 11.7265 12.8477C11.9844 12.6648 12.1146 12.3576 12.0625 12.0529L11.4193 8.35352L14.1328 5.73574C14.3568 5.51992 14.4375 5.19746 14.3385 4.90547C14.2396 4.61348 13.9818 4.4002 13.6693 4.35449L9.92707 3.81621L8.25259 0.457031Z" fill="#FFA800"/>
</g>
<defs>
<clipPath id="clip0_20_789">
<rect width="15" height="13" fill="white"/>
</clipPath>
</defs>
</svg>
