<svg width="29" height="29" viewBox="0 0 29 29" fill="none" xmlns="http://www.w3.org/2000/svg">
<g clip-path="url(#clip0_28_1549)">
<path d="M14.5 2.71875C7.99199 2.71875 2.71875 7.99199 2.71875 14.5V16.7656C2.71875 17.5189 2.1127 18.125 1.35938 18.125C0.606055 18.125 0 17.5189 0 16.7656V14.5C0 6.49102 6.49102 0 14.5 0C22.509 0 29 6.49102 29 14.5V22.6619C29 25.4146 26.7684 27.6463 24.01 27.6463L17.7625 27.6406C17.2924 28.4506 16.4145 29 15.4062 29H13.5938C12.0928 29 10.875 27.7822 10.875 26.2812C10.875 24.7803 12.0928 23.5625 13.5938 23.5625H15.4062C16.4145 23.5625 17.2924 24.1119 17.7625 24.9219L24.0156 24.9275C25.2674 24.9275 26.2812 23.9137 26.2812 22.6619V14.5C26.2812 7.99199 21.008 2.71875 14.5 2.71875ZM8.15625 11.7812H9.0625C10.065 11.7812 10.875 12.5912 10.875 13.5938V19.9375C10.875 20.94 10.065 21.75 9.0625 21.75H8.15625C6.15684 21.75 4.53125 20.1244 4.53125 18.125V15.4062C4.53125 13.4068 6.15684 11.7812 8.15625 11.7812ZM20.8438 11.7812C22.8432 11.7812 24.4688 13.4068 24.4688 15.4062V18.125C24.4688 20.1244 22.8432 21.75 20.8438 21.75H19.9375C18.935 21.75 18.125 20.94 18.125 19.9375V13.5938C18.125 12.5912 18.935 11.7812 19.9375 11.7812H20.8438Z" fill="#5F93D0"/>
</g>
<defs>
<clipPath id="clip0_28_1549">
<rect width="29" height="29" fill="white"/>
</clipPath>
</defs>
</svg>
